<svg xmlns="http://www.w3.org/2000/svg">
	<g style="fill:none;stroke:#000000">
		<path
         d="M 1.1088123,2.7880971 H 0.79875436 V 0.81233921 Q 0.686789,0.91913694 0.50419934,1.0259347 0.32333223,1.1327324 0.17863853,1.1861313 V 0.8864086 Q 0.43874267,0.76410798 0.63339014,0.59013104 0.82803761,0.4161541 0.90899717,0.25251243 H 1.1088123 Z"
         id="1" />
		<path
		   d="M 1.8480528,2.490097 V 2.7880971 H 0.17890775 Q 0.17546265,2.6761318 0.21508115,2.5727791 0.27881535,2.4022473 0.41834135,2.2368831 0.55958995,2.0715189 0.82486175,1.8544783 1.2365497,1.5168597 1.3812434,1.3204897 1.5259371,1.1223971 1.5259371,0.94669764 q 0,-0.1843122 -0.1326359,-0.31005791 Q 1.2623879,0.50917148 1.050515,0.50917148 q -0.22393075,0 -0.35828915,0.13435843 -0.1343584,0.13435842 -0.136081,0.37206949 l -0.3186706,-0.0327283 q 0.032728,-0.3565666 0.2463238,-0.54260135 0.2135954,-0.18775729 0.57360705,-0.18775729 0.3634568,0 0.5753297,0.20153764 0.2118729,0.20153764 0.2118729,0.49953775 0,0.15158388 -0.062012,0.29800008 Q 1.7205846,1.3980042 1.5758909,1.5599233 1.4329197,1.7218424 1.0987462,2.0043396 0.81969415,2.2386056 0.74045705,2.3230103 0.66122005,2.4056924 0.60954375,2.490097 Z"
		   id="2" />
		<path
		   d="m 0.19051366,2.1214726 0.3100579,-0.041341 q 0.053399,0.2635492 0.1808671,0.3806822 0.1291908,0.1154104 0.3135031,0.1154104 0.21876304,0 0.36862444,-0.1515838 Q 1.51515,2.2730565 1.51515,2.0491258 q 0,-0.2135955 -0.139526,-0.351399 -0.1395261,-0.139526 -0.3548441,-0.139526 -0.08785,0 -0.21876314,0.034451 l 0.034451,-0.2721619 q 0.031006,0.00345 0.049954,0.00345 0.19809254,0 0.35656664,-0.1033527 0.158474,-0.1033526 0.158474,-0.3186706 0,-0.17053185 -0.1154104,-0.28249721 -0.1154108,-0.11197046 -0.29800044,-0.11197046 -0.1808671,0 -0.3014452,0.1136879 -0.1205781,0.11368791 -0.155029,0.34106371 l -0.3100579,-0.0551214 q 0.056844,-0.31178046 0.2583816,-0.48231231 0.2015376,-0.17225439 0.5012603,-0.17225439 0.20670534,0 0.38068224,0.0895723 0.173977,0.0878497 0.2652718,0.24115616 0.093017,0.15330641 0.093017,0.32556081 0,0.1636417 -0.08785,0.2980001 -0.08785,0.1343584 -0.2601041,0.2135954 0.2239307,0.051676 0.3479539,0.215318 0.1240231,0.1619192 0.1240231,0.4065204 0,0.3307284 -0.2411561,0.5615493 -0.2411562,0.2290984 -0.60978064,0.2290984 -0.332451,0 -0.5529366,-0.1980926 -0.2187625,-0.1980925 -0.2497683,-0.5133181 z"
		   id="3" />
		<path
		   d="M 1.2741765,2.7880971 V 2.1834842 H 0.17863853 V 1.8992645 L 1.3310204,0.26284769 H 1.5842342 V 1.8992645 h 0.341064 v 0.2842197 h -0.341064 v 0.6046129 z m 0,-0.8888326 V 0.7606629 L 0.48352883,1.8992645 Z"
		   id="4" />
		<path
		   d="m 0.19098915,2.1266403 0.32556,-0.027561 q 0.03617,0.237711 0.167087,0.3582891 0.132636,0.1188555 0.31867105,0.1188555 0.223931,0 0.37896,-0.1688093 0.155029,-0.1688093 0.155029,-0.4478614 0,-0.2652718 -0.149862,-0.4185782 -0.148139,-0.1533064 -0.38929505,-0.1533064 -0.149861,0 -0.270439,0.068902 -0.120578,0.067179 -0.18948,0.1756994 l -0.29111,-0.037896 0.244601,-1.29707563 H 1.7464462 V 0.59357613 H 0.73875815 l -0.136081,0.67868237 q 0.227375,-0.1584741 0.47714405,-0.1584741 0.330729,0 0.558105,0.2290984 0.227375,0.2290983 0.227375,0.58911 0,0.3427862 -0.199815,0.5925551 -0.242878,0.3066128 -0.663179,0.3066128 -0.34450905,0 -0.56327205,-0.1929249 -0.217041,-0.1929249 -0.248046,-0.5115955 z"
		   id="5" />
		<path
		   d="m 1.8012745,0.88124097 -0.308335,0.0241156 Q 1.4515985,0.72276693 1.3758065,0.64008482 1.2500605,0.50744893 1.0657485,0.50744893 q -0.14813897,0 -0.26010397,0.0826821 -0.146417,0.10679773 -0.230821,0.31178046 -0.08441,0.20498271 -0.08785,0.58394241 0.111965,-0.1705318 0.273884,-0.253214 0.16192,-0.082682 0.33934197,-0.082682 0.310058,0 0.527098,0.2290984 0.218763,0.2273758 0.218763,0.58911 0,0.2377111 -0.103352,0.4426938 -0.101631,0.2032602 -0.280775,0.3117805 -0.179145,0.1085202 -0.40652,0.1085202 -0.38757297,0 -0.63217397,-0.2842197 -0.244601,-0.2859423 -0.244601,-0.940509 0,-0.73208121 0.270439,-1.0645322 0.235989,-0.28938738 0.63561897,-0.28938738 0.298,0 0.48748,0.16708676 0.191202,0.16708676 0.229098,0.46164169 z M 0.53520453,1.9698888 q 0,0.1601965 0.06718,0.3066128 0.0689,0.1464162 0.191203,0.2239307 0.1223,0.075792 0.25665897,0.075792 0.19637,0 0.337618,-0.158474 0.141249,-0.1584741 0.141249,-0.430636 0,-0.2618267 -0.139526,-0.411688 -0.139526,-0.1515839 -0.351399,-0.1515839 -0.21014997,0 -0.35656697,0.1515839 -0.146416,0.1498613 -0.146416,0.3944626 z"
		   id="6" />
		<path
		   d="M 0.17863853,0.59357613 V 0.29557602 H 1.8133325 V 0.53673218 Q 1.5721765,0.79339123 1.3344655,1.2188596 1.0984765,1.6443279 0.96928653,2.0939119 0.87626853,2.41086 0.85043053,2.7880971 h -0.318671 q 0.0052,-0.2980001 0.117133,-0.7200233 0.111966,-0.4220233 0.320394,-0.8130408 Q 1.1794365,0.86229299 1.4154245,0.59357613 Z"
		   id="7" />
		<path
		   d="m 0.65923453,1.4186747 q -0.192925,-0.070624 -0.285942,-0.2015377 -0.09302,-0.1309133 -0.09302,-0.31350296 0,-0.27560703 0.198092,-0.46336432 0.198093,-0.18775729 0.52709897,-0.18775729 0.330728,0 0.532266,0.19292492 0.201537,0.19120238 0.201537,0.46680941 0,0.17569944 -0.09302,0.30661284 -0.09129,0.1291908 -0.279052,0.1998151 0.232543,0.075792 0.353121,0.2446012 0.122301,0.1688093 0.122301,0.4030753 0,0.3238383 -0.229098,0.5443239 -0.229099,0.2204856 -0.602891,0.2204856 -0.37379197,0 -0.60288997,-0.2204856 -0.229099,-0.2222082 -0.229099,-0.5529366 0,-0.2463238 0.124024,-0.411688 0.125745,-0.1670868 0.356566,-0.2273758 z m -0.06201,-0.52537592 q 0,0.17914462 0.11541,0.29283252 0.115411,0.1136879 0.29972297,0.1136879 0.179144,0 0.292832,-0.1119654 0.115411,-0.1136879 0.115411,-0.27732958 0,-0.17053185 -0.118856,-0.2859423 -0.117133,-0.11713299 -0.292832,-0.11713299 -0.17742197,0 -0.29455497,0.1136879 -0.117133,0.11368791 -0.117133,0.27216195 z M 0.49731553,2.059461 q 0,0.1326359 0.06201,0.2566591 0.06373,0.1240232 0.187757,0.1929249 0.124023,0.067179 0.26699397,0.067179 0.222208,0 0.366902,-0.1429711 0.144694,-0.1429712 0.144694,-0.3634568 0,-0.2239307 -0.149861,-0.3703469 -0.148139,-0.1464163 -0.37207,-0.1464163 -0.21876297,0 -0.36345697,0.1446937 -0.142971,0.1446937 -0.142971,0.3617342 z"
		   id="8" />
		<path
		   d="m 0.22512353,2.2041547 0.298,-0.027561 q 0.0379,0.2101504 0.144693,0.3048903 0.106798,0.09474 0.273885,0.09474 0.14297097,0 0.24976897,-0.065457 0.10852,-0.065457 0.177422,-0.173977 0.0689,-0.1102428 0.11541,-0.2962775 0.04651,-0.1860348 0.04651,-0.3789597 0,-0.020671 -0.0017,-0.062012 -0.09302,0.1481388 -0.254936,0.2411562 -0.160197,0.091295 -0.34795397,0.091295 -0.313503,0 -0.530544,-0.2273758 -0.21704,-0.2273758 -0.21704,-0.5994453 0,-0.38412732 0.225653,-0.6183933 0.227376,-0.23426597 0.56844,-0.23426597 0.24632297,0 0.44958397,0.13263588 0.204982,0.13263589 0.310058,0.37895967 0.106797,0.24460122 0.106797,0.70968812 0,0.4840349 -0.105075,0.7716997 -0.105075,0.2859423 -0.313503,0.4358036 -0.206705,0.1498613 -0.48575697,0.1498613 -0.296278,0 -0.484035,-0.1636416 -0.187757,-0.1653643 -0.225653,-0.4633644 z M 1.4946375,1.0896688 q 0,-0.26699432 -0.142971,-0.42374582 -0.141248,-0.1567515 -0.341063,-0.1567515 -0.20670597,0 -0.36001197,0.1688093 -0.153306,0.16880931 -0.153306,0.43752622 0,0.2411561 0.144693,0.39274 0.146416,0.1498613 0.36001197,0.1498613 0.215318,0 0.353121,-0.1498613 0.139526,-0.1515839 0.139526,-0.4185782 z"
		   id="9" />
		<path
		   d="m 0.17863853,1.5426979 q 0,-0.4478615 0.09129,-0.72002342 0.09302,-0.27388449 0.273884,-0.42202327 0.18259,-0.14813878 0.45819697,-0.14813878 0.20326,0 0.356567,0.0826821 0.153306,0.0809596 0.253214,0.23598852 0.09991,0.15330641 0.156751,0.37551458 0.05684,0.22048567 0.05684,0.59600027 0,0.4444163 -0.09129,0.7183008 -0.09129,0.2721619 -0.273884,0.4220233 -0.180867,0.1481387 -0.458197,0.1481387 -0.36517897,0 -0.57360697,-0.2618266 -0.249769,-0.3152256 -0.249769,-1.0266362 z m 0.318671,0 q 0,0.6218383 0.144693,0.8285436 0.146417,0.2049827 0.36001197,0.2049827 0.213596,0 0.358289,-0.2067052 0.146417,-0.2067053 0.146417,-0.8268211 0,-0.62356096 -0.146417,-0.82854369 -0.144693,-0.20498273 -0.36173397,-0.20498273 -0.213595,0 -0.341064,0.18086711 -0.160196,0.23082089 -0.160196,0.85265931 z"
		   id="0" />
		<path
		   d="M 0.2254107,3.4424003 V 3.2184696 h 2.054995 v 0.2239307 z"
		   id="_" />
		<path
		   d="m 0.79014153,3.5305136 q -0.256659,-0.3238383 -0.434081,-0.7579194 -0.177422,-0.434081 -0.177422,-0.8991679 0,-0.4099655 0.132636,-0.7854801 0.155029,-0.43580357 0.478867,-0.86816211 H 1.0123495 q -0.20842697,0.35828914 -0.27560697,0.51159556 -0.105075,0.23771107 -0.165364,0.49609265 -0.07407,0.3221157 -0.07407,0.6476765 0,0.8285437 0.51503997,1.6553648 z"
		   id="(" />
		<path
		   d="m 0.50682124,3.5305136 h -0.222209 q 0.515041,-0.8268211 0.515041,-1.6553648 0,-0.3238382 -0.07407,-0.6425089 -0.05857,-0.25838155 -0.163642,-0.49609262 -0.06718,-0.15502896 -0.27733,-0.51676319 h 0.222209 q 0.323838,0.43235854 0.478867,0.86816211 0.13263596,0.3755146 0.13263596,0.7854801 0,0.4650869 -0.17914496,0.8991679 -0.177422,0.4340811 -0.432358,0.7579194 z"
		   id=")" />
		<path
		   d="M 0.2254107,3.4837414 V 0.17301185 h 0.270439 V 3.4837414 Z"
		   id="|" />
	</g>
</svg>
